<?xml version="1.0" encoding="UTF-8"?>
<!DOCTYPE svg PUBLIC "-//W3C//DTD SVG 1.1//EN" "http://www.w3.org/Graphics/SVG/1.1/DTD/svg11.dtd">
<svg xmlns="http://www.w3.org/2000/svg" version="1.1" width="320px" height="320px" style="shape-rendering:geometricPrecision; text-rendering:geometricPrecision; image-rendering:optimizeQuality; fill-rule:evenodd; clip-rule:evenodd" xmlns:xlink="http://www.w3.org/1999/xlink">
<g><path style="opacity:1" fill="#0aa787" d="M 258.5,111.5 C 258.5,112.833 257.833,113.5 256.5,113.5C 247.131,118.849 237.798,124.182 228.5,129.5C 208.143,139.178 187.81,149.178 167.5,159.5C 166.167,159.5 165.5,160.167 165.5,161.5C 165.167,161.5 164.833,161.5 164.5,161.5C 163.9,160.1 162.9,159.1 161.5,158.5C 162.552,158.649 163.552,158.483 164.5,158C 159.581,155.37 154.581,153.37 149.5,152C 150.056,152.383 150.389,152.883 150.5,153.5C 148.181,153.008 146.181,152.008 144.5,150.5C 145.552,150.649 146.552,150.483 147.5,150C 121.416,136.457 95.0826,123.124 68.5,110C 66.0524,109.147 65.3857,109.647 66.5,111.5C 64.7162,111.107 63.0495,110.441 61.5,109.5C 61.5,108.833 61.1667,108.5 60.5,108.5C 63.9678,107.229 66.9678,105.229 69.5,102.5C 80.051,96.5827 90.7177,90.7493 101.5,85C 102.793,84.51 104.127,84.3433 105.5,84.5C 116.419,79.8766 126.753,74.5432 136.5,68.5C 152.829,59.6689 169.496,51.3355 186.5,43.5C 190.655,42.2583 194.322,40.2583 197.5,37.5C 198.82,36.0582 200.486,35.3915 202.5,35.5C 207.484,33.6745 212.151,31.3411 216.5,28.5C 221.418,24.2861 227.085,21.2861 233.5,19.5C 237.822,18.0074 242.156,16.5074 246.5,15C 247.365,13.6412 248.365,12.4745 249.5,11.5C 251.675,11.3178 253.675,10.6511 255.5,9.5C 256.442,9.60816 257.275,9.94149 258,10.5C 258.5,44.165 258.667,77.8317 258.5,111.5 Z"/></g>
<g><path style="opacity:0.616" fill="#90d9cb" d="M 258.5,111.5 C 258.667,77.8317 258.5,44.165 258,10.5C 257.275,9.94149 256.442,9.60816 255.5,9.5C 253.675,10.6511 251.675,11.3178 249.5,11.5C 252.118,8.53362 255.285,7.86695 259,9.5C 259.831,43.6691 259.664,77.6691 258.5,111.5 Z"/></g>
<g><path style="opacity:0.122" fill="#9cdacc" d="M 249.5,11.5 C 248.365,12.4745 247.365,13.6412 246.5,15C 242.156,16.5074 237.822,18.0074 233.5,19.5C 238.504,16.2701 243.837,13.6035 249.5,11.5 Z"/></g>
<g><path style="opacity:0.514" fill="#b3e4da" d="M 216.5,28.5 C 212.151,31.3411 207.484,33.6745 202.5,35.5C 206.581,32.1263 211.247,29.793 216.5,28.5 Z"/></g>
<g><path style="opacity:0.592" fill="#bde7df" d="M 197.5,37.5 C 194.322,40.2583 190.655,42.2583 186.5,43.5C 189.678,40.7417 193.345,38.7417 197.5,37.5 Z"/></g>
<g><path style="opacity:0.596" fill="#a3ddd0" d="M 136.5,68.5 C 126.753,74.5432 116.419,79.8766 105.5,84.5C 115.198,78.0375 125.532,72.7042 136.5,68.5 Z"/></g>
<g><path style="opacity:1" fill="#9dd9cc" d="M 69.5,102.5 C 66.9678,105.229 63.9678,107.229 60.5,108.5C 59.8333,108.5 59.1667,108.5 58.5,108.5C 58.9528,107.542 59.6195,106.708 60.5,106C 63.5617,104.795 66.5617,103.628 69.5,102.5 Z"/></g>
<g><path style="opacity:1" fill="#ebbb0b" d="M 61.5,109.5 C 63.0495,110.441 64.7162,111.107 66.5,111.5C 67.1667,111.5 67.5,111.833 67.5,112.5C 66.6236,112.369 65.9569,112.702 65.5,113.5C 66.1667,114.5 66.8333,115.5 67.5,116.5C 67.3516,120.312 67.0182,124.145 66.5,128C 66.8623,129.225 67.3623,130.391 68,131.5C 68.7889,149.974 70.6222,168.307 73.5,186.5C 73.1667,187.833 72.8333,189.167 72.5,190.5C 72.9767,191.478 73.6433,192.311 74.5,193C 74.464,196.336 74.1306,200.169 73.5,204.5C 75.6636,204.279 77.3303,203.279 78.5,201.5C 78.8417,202.338 79.5084,202.672 80.5,202.5C 79.3065,203.272 78.3065,204.272 77.5,205.5C 74.1667,206.833 70.8333,208.167 67.5,209.5C 66.1266,209.657 64.7932,209.49 63.5,209C 65.2861,208.804 66.6195,207.971 67.5,206.5C 65.6563,180.426 63.323,154.426 60.5,128.5C 60.1765,121.978 60.5098,115.645 61.5,109.5 Z"/></g>
<g><path style="opacity:1" fill="#fbc904" d="M 67.5,112.5 C 72.3148,114.072 76.6482,116.405 80.5,119.5C 82.7273,121.643 85.0607,123.81 87.5,126C 86.2624,125.923 85.2624,126.089 84.5,126.5C 84.5337,129.531 84.867,132.698 85.5,136C 85.1667,137.5 84.8333,139 84.5,140.5C 83.7492,139.624 83.2492,138.624 83,137.5C 81.967,140.217 82.8003,142.051 85.5,143C 81.6358,144.55 81.6358,146.05 85.5,147.5C 84.7366,148.719 83.7366,149.719 82.5,150.5C 83.0253,151.192 83.6919,151.692 84.5,152C 83.376,152.249 82.376,152.749 81.5,153.5C 82.6155,154.598 82.6155,155.765 81.5,157C 81.9054,157.945 82.572,158.612 83.5,159C 82.8333,159.333 82.1667,159.667 81.5,160C 82.1667,163.333 82.8333,166.667 83.5,170C 83.0598,172.162 82.7265,174.329 82.5,176.5C 82.9767,177.478 83.6433,178.311 84.5,179C 82.1088,179.691 82.1088,180.691 84.5,182C 83.6919,182.308 83.0253,182.808 82.5,183.5C 83.1646,187.508 83.1646,191.842 82.5,196.5C 84.7867,196.276 86.9534,195.609 89,194.5C 89.7648,194.57 90.2648,194.903 90.5,195.5C 86.5,197.5 82.5,199.5 78.5,201.5C 77.3303,203.279 75.6636,204.279 73.5,204.5C 74.1306,200.169 74.464,196.336 74.5,193C 73.6433,192.311 72.9767,191.478 72.5,190.5C 72.8333,189.167 73.1667,187.833 73.5,186.5C 70.6222,168.307 68.7889,149.974 68,131.5C 67.3623,130.391 66.8623,129.225 66.5,128C 67.0182,124.145 67.3516,120.312 67.5,116.5C 66.8333,115.5 66.1667,114.5 65.5,113.5C 65.9569,112.702 66.6236,112.369 67.5,112.5 Z"/></g>
<g><path style="opacity:0.329" fill="#ace1d6" d="M 256.5,113.5 C 256.141,115.371 255.141,116.871 253.5,118C 245.376,122.318 237.043,126.151 228.5,129.5C 237.798,124.182 247.131,118.849 256.5,113.5 Z"/></g>
<g><path style="opacity:1" fill="#41a196" d="M 144.5,150.5 C 128.68,143.09 113.013,135.423 97.5,127.5C 92.2997,124.087 86.633,121.42 80.5,119.5C 76.6482,116.405 72.3148,114.072 67.5,112.5C 67.5,111.833 67.1667,111.5 66.5,111.5C 65.3857,109.647 66.0524,109.147 68.5,110C 95.0826,123.124 121.416,136.457 147.5,150C 146.552,150.483 145.552,150.649 144.5,150.5 Z"/></g>
<g><path style="opacity:1" fill="#fed500" d="M 80.5,119.5 C 86.633,121.42 92.2997,124.087 97.5,127.5C 96.7611,127.369 96.0944,127.536 95.5,128C 98.1943,130.347 101.194,132.18 104.5,133.5C 103.909,134.151 103.243,134.818 102.5,135.5C 103.552,137.11 103.552,138.777 102.5,140.5C 102.722,142.055 103.389,143.389 104.5,144.5C 103.833,145.167 103.167,145.833 102.5,146.5C 103.432,153.04 103.432,159.374 102.5,165.5C 104.854,167.122 104.854,168.622 102.5,170C 102.539,173.469 102.539,176.969 102.5,180.5C 103.714,185.656 106.381,186.656 110.5,183.5C 111.107,183.624 111.44,183.957 111.5,184.5C 104.692,188.405 97.6922,192.072 90.5,195.5C 90.2648,194.903 89.7648,194.57 89,194.5C 86.9534,195.609 84.7867,196.276 82.5,196.5C 83.1646,191.842 83.1646,187.508 82.5,183.5C 83.0253,182.808 83.6919,182.308 84.5,182C 82.1088,180.691 82.1088,179.691 84.5,179C 83.6433,178.311 82.9767,177.478 82.5,176.5C 82.7265,174.329 83.0598,172.162 83.5,170C 82.8333,166.667 82.1667,163.333 81.5,160C 82.1667,159.667 82.8333,159.333 83.5,159C 82.572,158.612 81.9054,157.945 81.5,157C 82.6155,155.765 82.6155,154.598 81.5,153.5C 82.376,152.749 83.376,152.249 84.5,152C 83.6919,151.692 83.0253,151.192 82.5,150.5C 83.7366,149.719 84.7366,148.719 85.5,147.5C 81.6358,146.05 81.6358,144.55 85.5,143C 82.8003,142.051 81.967,140.217 83,137.5C 83.2492,138.624 83.7492,139.624 84.5,140.5C 84.8333,139 85.1667,137.5 85.5,136C 84.867,132.698 84.5337,129.531 84.5,126.5C 85.2624,126.089 86.2624,125.923 87.5,126C 85.0607,123.81 82.7273,121.643 80.5,119.5 Z"/></g>
<g><path style="opacity:1" fill="#fee200" d="M 104.5,133.5 C 112.467,137.106 120.467,140.773 128.5,144.5C 130.283,146.232 132.283,147.732 134.5,149C 131.411,148.615 128.411,147.948 125.5,147C 127.373,149.113 128.373,151.613 128.5,154.5C 127.461,159.913 127.461,165.246 128.5,170.5C 127.687,171.814 126.687,172.981 125.5,174C 128.472,173.948 131.305,173.114 134,171.5C 134.5,171.833 135,172.167 135.5,172.5C 127.717,176.953 119.717,180.953 111.5,184.5C 111.44,183.957 111.107,183.624 110.5,183.5C 106.381,186.656 103.714,185.656 102.5,180.5C 102.539,176.969 102.539,173.469 102.5,170C 104.854,168.622 104.854,167.122 102.5,165.5C 103.432,159.374 103.432,153.04 102.5,146.5C 103.167,145.833 103.833,145.167 104.5,144.5C 103.389,143.389 102.722,142.055 102.5,140.5C 103.552,138.777 103.552,137.11 102.5,135.5C 103.243,134.818 103.909,134.151 104.5,133.5 Z"/></g>
<g><path style="opacity:1" fill="#f8eb10" d="M 97.5,127.5 C 113.013,135.423 128.68,143.09 144.5,150.5C 146.181,152.008 148.181,153.008 150.5,153.5C 154.043,155.438 157.71,157.105 161.5,158.5C 162.9,159.1 163.9,160.1 164.5,161.5C 157.229,164.801 150.229,168.467 143.5,172.5C 122.762,181.702 102.429,191.702 82.5,202.5C 81.8333,202.5 81.1667,202.5 80.5,202.5C 79.5084,202.672 78.8417,202.338 78.5,201.5C 82.5,199.5 86.5,197.5 90.5,195.5C 97.6922,192.072 104.692,188.405 111.5,184.5C 119.717,180.953 127.717,176.953 135.5,172.5C 135,172.167 134.5,171.833 134,171.5C 131.305,173.114 128.472,173.948 125.5,174C 126.687,172.981 127.687,171.814 128.5,170.5C 127.461,165.246 127.461,159.913 128.5,154.5C 128.373,151.613 127.373,149.113 125.5,147C 128.411,147.948 131.411,148.615 134.5,149C 132.283,147.732 130.283,146.232 128.5,144.5C 120.467,140.773 112.467,137.106 104.5,133.5C 101.194,132.18 98.1943,130.347 95.5,128C 96.0944,127.536 96.7611,127.369 97.5,127.5 Z"/></g>
<g><path style="opacity:0.51" fill="#abe1d6" d="M 228.5,129.5 C 208.486,140.173 188.486,150.84 168.5,161.5C 167.662,161.158 167.328,160.492 167.5,159.5C 187.81,149.178 208.143,139.178 228.5,129.5 Z"/></g>
<g><path style="opacity:1" fill="#2b9a9d" d="M 161.5,158.5 C 157.71,157.105 154.043,155.438 150.5,153.5C 150.389,152.883 150.056,152.383 149.5,152C 154.581,153.37 159.581,155.37 164.5,158C 163.552,158.483 162.552,158.649 161.5,158.5 Z"/></g>
<g><path style="opacity:0.118" fill="#e4cd8e" d="M 58.5,108.5 C 59.1667,108.5 59.8333,108.5 60.5,108.5C 61.1667,108.5 61.5,108.833 61.5,109.5C 60.5098,115.645 60.1765,121.978 60.5,128.5C 59.8417,156.853 60.5084,184.853 62.5,212.5C 61.4937,213.396 61.4937,214.062 62.5,214.5C 62.8333,215.167 63.1667,215.833 63.5,216.5C 61.6096,216.703 60.1096,216.037 59,214.5C 58.5,179.168 58.3333,143.835 58.5,108.5 Z"/></g>
<g><path style="opacity:1" fill="#2c67b0" d="M 174.5,166.5 C 200.749,179.625 227.082,192.791 253.5,206C 255,207.5 256.5,209 258,210.5C 258.667,244.167 258.667,277.833 258,311.5C 257.439,312.022 256.772,312.355 256,312.5C 252.634,310.73 249.134,309.397 245.5,308.5C 243.62,308.771 242.287,308.104 241.5,306.5C 235.419,302.126 228.752,298.793 221.5,296.5C 219.62,296.771 218.287,296.104 217.5,294.5C 211.134,289.911 204.134,286.244 196.5,283.5C 193.485,281.326 190.151,279.659 186.5,278.5C 184.62,278.771 183.287,278.104 182.5,276.5C 178.151,273.659 173.484,271.326 168.5,269.5C 162.388,265.111 155.721,261.777 148.5,259.5C 146.664,257.412 144.331,256.079 141.5,255.5C 141.167,255.5 140.833,255.5 140.5,255.5C 139.089,253.461 137.089,252.461 134.5,252.5C 131.325,249.672 127.658,247.672 123.5,246.5C 121.62,246.771 120.287,246.104 119.5,244.5C 115.151,241.659 110.484,239.326 105.5,237.5C 102.485,235.326 99.1513,233.659 95.5,232.5C 93.7632,230.45 91.7632,228.617 89.5,227C 85.3938,226.109 81.3938,224.942 77.5,223.5C 72.3807,221.915 67.7141,219.582 63.5,216.5C 67.8689,216.566 71.7022,217.899 75,220.5C 88.4489,214.444 101.616,207.111 114.5,198.5C 115.086,198.709 115.586,199.043 116,199.5C 134.357,187.79 153.857,176.79 174.5,166.5 Z"/></g>
<g><path style="opacity:1" fill="#265799" d="M 164.5,161.5 C 164.833,161.5 165.167,161.5 165.5,161.5C 168.696,162.929 171.696,164.595 174.5,166.5C 153.857,176.79 134.357,187.79 116,199.5C 115.586,199.043 115.086,198.709 114.5,198.5C 101.616,207.111 88.4489,214.444 75,220.5C 71.7022,217.899 67.8689,216.566 63.5,216.5C 63.1667,215.833 62.8333,215.167 62.5,214.5C 68.2731,211.959 73.9398,209.126 79.5,206C 78.9056,205.536 78.2389,205.369 77.5,205.5C 78.3065,204.272 79.3065,203.272 80.5,202.5C 81.1667,202.5 81.8333,202.5 82.5,202.5C 81.3857,204.353 82.0524,204.853 84.5,204C 105.02,193.907 125.354,183.574 145.5,173C 144.906,172.536 144.239,172.369 143.5,172.5C 150.229,168.467 157.229,164.801 164.5,161.5 Z"/></g>
<g><path style="opacity:1" fill="#d2a40d" d="M 60.5,128.5 C 63.323,154.426 65.6563,180.426 67.5,206.5C 66.6195,207.971 65.2861,208.804 63.5,209C 64.7932,209.49 66.1266,209.657 67.5,209.5C 66.0351,210.737 64.3684,211.737 62.5,212.5C 60.5084,184.853 59.8417,156.853 60.5,128.5 Z"/></g>
<g><path style="opacity:1" fill="#2c369f" d="M 143.5,172.5 C 144.239,172.369 144.906,172.536 145.5,173C 125.354,183.574 105.02,193.907 84.5,204C 82.0524,204.853 81.3857,204.353 82.5,202.5C 102.429,191.702 122.762,181.702 143.5,172.5 Z"/></g>
<g><path style="opacity:1" fill="#253897" d="M 77.5,205.5 C 78.2389,205.369 78.9056,205.536 79.5,206C 73.9398,209.126 68.2731,211.959 62.5,214.5C 61.4937,214.062 61.4937,213.396 62.5,212.5C 64.3684,211.737 66.0351,210.737 67.5,209.5C 70.8333,208.167 74.1667,206.833 77.5,205.5 Z"/></g>
<g><path style="opacity:1" fill="#88a4d0" d="M 77.5,223.5 C 81.3938,224.942 85.3938,226.109 89.5,227C 91.7632,228.617 93.7632,230.45 95.5,232.5C 89.0117,230.313 83.0117,227.313 77.5,223.5 Z"/></g>
<g><path style="opacity:0.008" fill="#b8cce4" d="M 95.5,232.5 C 99.1513,233.659 102.485,235.326 105.5,237.5C 101.58,236.873 98.2466,235.207 95.5,232.5 Z"/></g>
<g><path style="opacity:0.09" fill="#b6cae3" d="M 105.5,237.5 C 110.484,239.326 115.151,241.659 119.5,244.5C 114.247,243.207 109.581,240.874 105.5,237.5 Z"/></g>
<g><path style="opacity:0.902" fill="#b5c9e3" d="M 123.5,246.5 C 127.658,247.672 131.325,249.672 134.5,252.5C 130.388,251.278 126.721,249.278 123.5,246.5 Z"/></g>
<g><path style="opacity:0.906" fill="#b7cae3" d="M 134.5,252.5 C 137.089,252.461 139.089,253.461 140.5,255.5C 138.03,255.346 136.03,254.346 134.5,252.5 Z"/></g>
<g><path style="opacity:0.098" fill="#b6cae3" d="M 141.5,255.5 C 144.331,256.079 146.664,257.412 148.5,259.5C 147.448,259.649 146.448,259.483 145.5,259C 143.681,258.26 142.348,257.093 141.5,255.5 Z"/></g>
<g><path style="opacity:0.616" fill="#a2bcdc" d="M 167.5,159.5 C 167.328,160.492 167.662,161.158 168.5,161.5C 196.776,175.638 225.109,189.804 253.5,204C 255.333,205.833 257.167,207.667 259,209.5C 259.5,244.165 259.667,278.832 259.5,313.5C 253.924,314.031 249.257,312.365 245.5,308.5C 249.134,309.397 252.634,310.73 256,312.5C 256.772,312.355 257.439,312.022 258,311.5C 258.667,277.833 258.667,244.167 258,210.5C 256.5,209 255,207.5 253.5,206C 227.082,192.791 200.749,179.625 174.5,166.5C 171.696,164.595 168.696,162.929 165.5,161.5C 165.5,160.167 166.167,159.5 167.5,159.5 Z"/></g>
<g><path style="opacity:0.067" fill="#aec4e0" d="M 148.5,259.5 C 155.721,261.777 162.388,265.111 168.5,269.5C 161.539,266.737 154.872,263.403 148.5,259.5 Z"/></g>
<g><path style="opacity:1" fill="#bfd1e7" d="M 168.5,269.5 C 173.484,271.326 178.151,273.659 182.5,276.5C 177.247,275.207 172.581,272.874 168.5,269.5 Z"/></g>
<g><path style="opacity:0.447" fill="#b7cbe4" d="M 186.5,278.5 C 190.151,279.659 193.485,281.326 196.5,283.5C 192.58,282.873 189.247,281.207 186.5,278.5 Z"/></g>
<g><path style="opacity:0.118" fill="#b4c8e3" d="M 196.5,283.5 C 204.134,286.244 211.134,289.911 217.5,294.5C 211.896,292.035 206.229,289.535 200.5,287C 198.907,286.051 197.574,284.885 196.5,283.5 Z"/></g>
<g><path style="opacity:0.741" fill="#b8cce4" d="M 221.5,296.5 C 228.752,298.793 235.419,302.126 241.5,306.5C 234.558,303.696 227.891,300.362 221.5,296.5 Z"/></g>
</svg>
